<mxfile host="app.diagrams.net" modified="2024-04-12T02:12:24.677Z" agent="Mozilla/5.0 (Windows NT 10.0; Win64; x64) AppleWebKit/537.36 (KHTML, like Gecko) Chrome/123.0.0.0 Safari/537.36" version="24.2.3" etag="T8jIeE5Cuj9yQgh54-5D" type="github">
  <diagram name="Page-1" id="nb1CPW6SEHECzQr3CgmI">
    <mxGraphModel>
      <root>
        <mxCell id="0" />
        <mxCell id="1" parent="0" />
      </root>
    </mxGraphModel>
  </diagram>
</mxfile>
